<?xml version="1.0" ?><!DOCTYPE svg  PUBLIC '-//W3C//DTD SVG 1.1//EN'  'http://www.w3.org/Graphics/SVG/1.1/DTD/svg11.dtd'><svg enable-background="new 0 0 128 128" height="128px" id="Layer_1" version="1.1" viewBox="0 0 128 128" width="128px" xml:space="preserve" xmlns="http://www.w3.org/2000/svg" xmlns:xlink="http://www.w3.org/1999/xlink"><path d="M64.007,113.986c-0.469,0-0.938-0.164-1.313-0.492c-1.625-1.416-39.874-34.947-49.605-60.949  c-1.496-3.46-2.255-7.137-2.255-10.929c0-15.21,12.375-27.585,27.586-27.585c11.604,0,21.558,7.201,25.627,17.369  c4.116-10.066,14.019-17.177,25.549-17.177c15.212,0,27.588,12.374,27.588,27.585c0,0.549-0.021,1.093-0.053,1.635  c-0.085,24.652-49.694,68.207-51.809,70.051C64.945,113.822,64.476,113.986,64.007,113.986z M38.419,18.031  c-13.005,0-23.586,10.581-23.586,23.585c0,3.258,0.654,6.415,1.944,9.384c0.015,0.032,0.027,0.065,0.04,0.098  c8.369,22.436,40.298,52.006,47.189,58.211c7.947-7.148,49.123-45.193,49.123-65.929c0-0.042,0.001-0.083,0.004-0.124  c0.029-0.479,0.049-0.962,0.049-1.448c0-13.005-10.581-23.585-23.588-23.585S66.007,28.803,66.007,41.808  c0,0.118,0.005,0.233,0.009,0.35l0.01,0.3c0.011,0.539-0.194,1.058-0.571,1.442c-0.754,0.771-2.132,0.768-2.884-0.006  c-0.376-0.388-0.6-0.912-0.583-1.452l0.006-0.184c0.007-0.214,0.014-0.427,0.014-0.641C62.007,28.611,51.426,18.031,38.419,18.031z"/></svg>