<?xml version="1.0" ?><svg viewBox="0 0 512 512" xmlns="http://www.w3.org/2000/svg"><title/><g id="Jigsaw_puzzle"><path d="M441.1679,144.32l-35.5937-24.67a24.2109,24.2109,0,1,0-37.4112-25.93L330.9252,67.91l-25.8081,37.2358a23.8939,23.8939,0,0,0-5.9477-5.8862,24.2115,24.2115,0,1,0-27.584,39.7983,23.88,23.88,0,0,0,7.5986,3.5034l-25.8081,37.2354,43.9546,30.4653.0313-3.7812a20.2111,20.2111,0,1,1,27.4765,19.0439l-3.53,1.3565,43.9546,30.4648,25.5508-36.8643a24.2109,24.2109,0,1,0,26.4868-38.1455L430.54,163.79a2,2,0,0,0-3.2559-2.3243L410.56,184.8945l3.043.6A20.2114,20.2114,0,1,1,392.5,215.9429l-1.605-2.6-26.64,38.436-34.7177-24.0625A24.2108,24.2108,0,1,0,293.6591,202.85l-34.7168-24.0625L286.0956,139.61l-3.271-.4136a20.2017,20.2017,0,0,1-14.059-31.5518,20.2354,20.2354,0,0,1,28.1255-5.0981,19.9769,19.9769,0,0,1,6.354,7.1885l1.5356,2.9174L331.934,73.4761l39.1817,27.1567.4126-3.2729a20.2106,20.2106,0,1,1,29.456,20.4165l-2.92,1.5346L438.89,147.6069a2,2,0,1,0,2.2783-3.2871Z"/><path d="M377.393,320.1914a24.0107,24.0107,0,0,0-6.8726.9971V276.3354H324.28a24.2111,24.2111,0,1,0-43.6528,0l-42.2407,0V228.6685l-2.9243,1.5234a19.9675,19.9675,0,0,1-9.3169,2.2881,20.2115,20.2115,0,1,1,0-40.4229,19.9675,19.9675,0,0,1,9.3169,2.2881l2.9243,1.5235v-51.667H188.6913l.8482,2.6167a20.211,20.211,0,1,1-38.4414,0l.8481-2.6167H102.2519V189.45a23.8461,23.8461,0,0,0-8.0664-1.3921h-.0034a24.2112,24.2112,0,0,0,0,48.4224,23.8537,23.8537,0,0,0,8.07-1.3926v94.4282l3.0952-2.0259a20.2119,20.2119,0,1,1,.0005,33.8257l-3.0957-2.0263V410.47a2,2,0,0,0,4,0V366.3813a24.2114,24.2114,0,1,0,0-43.957V280.3359h41.1348a23.8269,23.8269,0,0,0-1.2789,7.7266,24.2112,24.2112,0,0,0,48.4224,0,23.83,23.83,0,0,0-1.2788-7.7266h41.1348v49.0367l3.08-1.9771a20.2115,20.2115,0,1,1,0,34.0147l-3.08-1.9771V408.47l-47.1162,0,1.3359,2.8491a20.024,20.024,0,0,1,1.9243,8.5606,20.2112,20.2112,0,0,1-40.4224,0,20.0206,20.0206,0,0,1,1.9239-8.56l1.3369-2.85H124.3012a2,2,0,0,0,0,4h22.9805a23.8554,23.8554,0,0,0-1.1739,7.41,24.2112,24.2112,0,0,0,48.4224,0,23.8453,23.8453,0,0,0-1.1743-7.41l41.03,0h53.8l-2.2315-3.1548a20.2115,20.2115,0,1,1,32.9971,0L316.72,412.47l53.8007,0V367.6172a24.2109,24.2109,0,1,0,6.8726-47.4258Zm-143.0068-43.856v0H187.0605l1.4067,2.878a19.9938,19.9938,0,0,1,2.063,8.8486,20.2112,20.2112,0,0,1-40.4224,0,20.0019,20.0019,0,0,1,2.063-8.8486l1.4068-2.878H106.2519V228.7827l-2.9087,1.4839a19.9789,19.9789,0,0,1-9.1611,2.2134,20.2112,20.2112,0,1,1,0-40.4224h.0024a19.9744,19.9744,0,0,1,9.1582,2.2129l2.9087,1.4839V148.2017h40.35a24.2114,24.2114,0,1,0,47.4336,0h40.3506v41.3046a23.8843,23.8843,0,0,0-8.2412-1.4492,24.2115,24.2115,0,1,0,0,48.4229,23.882,23.882,0,0,0,8.2412-1.4492ZM377.393,364.6143a20.0563,20.0563,0,0,1-8.0723-1.688l-2.8-1.2227V408.47l-42.4086,0a24.211,24.211,0,1,0-43.3174,0H238.3862V366.4541a24.2115,24.2115,0,1,0,0-44.1025V280.3354l49.48,0-2.1284-3.1255a20.2113,20.2113,0,1,1,33.43,0l-2.1284,3.1254h49.48v46.7667l2.8-1.2227a20.2091,20.2091,0,1,1,8.0723,38.7349Z"/></g></svg>