<?xml version="1.0" ?><svg viewBox="0 0 512 512" xmlns="http://www.w3.org/2000/svg"><title/><g id="Crayons"><path d="M264.3311,102.4565a7.918,7.918,0,0,0-14.545,0L226.9237,155.55h-5.7079v246.6A12.1944,12.1944,0,0,0,233.3965,414.33H280.72a12.1952,12.1952,0,0,0,12.1817-12.1807V155.55h-5.7088ZM225.2158,187.123V160.6182h63.6856V187.123ZM253.46,104.0386a3.9179,3.9179,0,0,1,7.1972,0l22.18,51.5112H231.2793Zm35.4414,298.1108A8.19,8.19,0,0,1,280.72,410.33H233.3965a8.19,8.19,0,0,1-8.1807-8.1807V381.707h63.6856ZM225.2158,377.707V351.6284h50.6856a2,2,0,0,0,0-4H225.2158V191.123h63.6856V377.707Z"/><path d="M257.0586,214.9141c-11.7139,0-20.89,23.5942-20.89,53.7143s9.1758,53.7149,20.89,53.7149a2,2,0,1,0,0-4c-4.084,0-8.2676-5.042-11.4785-13.833-3.4893-9.5533-5.4112-22.2964-5.4112-35.8819s1.9219-26.3281,5.4112-35.8813c3.2109-8.791,7.3945-13.833,11.4785-13.833s8.2666,5.042,11.4785,13.833c3.4893,9.5537,5.4111,22.2964,5.4111,35.8813,0,13.7793-1.9687,26.6489-5.5439,36.2393a2,2,0,0,0,3.748,1.3974c3.7373-10.0263,5.7959-23.3925,5.7959-37.6367C277.9482,238.5083,268.7725,214.9141,257.0586,214.9141Z"/><path d="M383.8069,155.55l-22.8616-53.0933a7.9179,7.9179,0,0,0-14.5449,0L323.5388,155.55H317.83v246.6A12.1952,12.1952,0,0,0,330.0117,414.33H377.335a12.1943,12.1943,0,0,0,12.1806-12.1807V155.55ZM321.83,191.123h50.6855a2,2,0,0,0,0-4H321.83V160.6182h63.6855v187.01H321.83Zm28.2441-87.0844a3.918,3.918,0,0,1,7.1973,0l22.18,51.5112H327.8945Zm35.4414,298.1108a8.19,8.19,0,0,1-8.1806,8.1807H330.0117a8.19,8.19,0,0,1-8.1816-8.1807V381.707h63.6855ZM321.83,377.707V351.6284h63.6855V377.707Z"/><path d="M353.6729,214.9141a2,2,0,0,0,0,4c4.0839,0,8.2675,5.042,11.4785,13.833,3.4892,9.5532,5.4111,22.2959,5.4111,35.8813s-1.9219,26.3286-5.4111,35.8819c-3.211,8.791-7.3946,13.833-11.4785,13.833s-8.2676-5.042-11.4786-13.833c-3.4892-9.5533-5.4111-22.2964-5.4111-35.8819s1.9219-26.3286,5.4121-35.8808a2,2,0,0,0-3.7578-1.3731c-3.6465,9.9815-5.6543,23.2114-5.6543,37.2539,0,30.1206,9.1758,53.7149,20.89,53.7149s20.89-23.5943,20.89-53.7149S365.3867,214.9141,353.6729,214.9141Z"/><path d="M165.6,102.4565a7.9179,7.9179,0,0,0-14.5449,0L128.1931,155.55h-5.7087v246.6A12.1943,12.1943,0,0,0,134.665,414.33h47.3233A12.1952,12.1952,0,0,0,194.17,402.1494V155.55h-5.7087ZM126.4844,347.6284V191.123H177.17a2,2,0,1,0,0-4H126.4844V160.6182H190.17v187.01Zm28.2441-243.59a3.918,3.918,0,0,1,7.1973,0l22.18,51.5112H132.5488ZM190.17,402.1494a8.19,8.19,0,0,1-8.1816,8.1807H134.665a8.19,8.19,0,0,1-8.1806-8.1807V381.707H190.17ZM126.4844,377.707V351.6284H190.17V377.707Z"/><path d="M158.3271,214.9141a2,2,0,0,0,0,4c4.084,0,8.2676,5.042,11.4786,13.833,3.4892,9.5532,5.4111,22.2959,5.4111,35.8813s-1.9219,26.3286-5.4111,35.8819c-3.211,8.791-7.3946,13.833-11.4786,13.833s-8.2675-5.042-11.4785-13.833c-3.4892-9.5533-5.4111-22.2964-5.4111-35.8819s1.9219-26.3276,5.4111-35.8813a2,2,0,0,0-3.7578-1.3721c-3.6455,9.9819-5.6533,23.2124-5.6533,37.2534,0,30.1206,9.1758,53.7149,20.89,53.7149s20.89-23.5943,20.89-53.7149S170.041,214.9141,158.3271,214.9141Z"/></g></svg>